<?xml version="1.0" encoding="iso-8859-1"?>
<!-- Generator: Adobe Illustrator 19.0.0, SVG Export Plug-In . SVG Version: 6.00 Build 0)  -->
<svg version="1.1" id="Capa_1" xmlns="http://www.w3.org/2000/svg" xmlns:xlink="http://www.w3.org/1999/xlink" x="0px" y="0px"
	 viewBox="0 0 512 512" style="enable-background:new 0 0 512 512;" xml:space="preserve">
<path style="fill:#A0E557;" d="M492.09,177.804L334.186,19.9c-13.213-13.213-34.636-13.213-47.85,0L39.91,266.326
	c-13.213,13.213-13.213,34.636,0,47.85L197.814,472.08c13.213,13.213,34.636,13.213,47.85,0L492.09,225.654
	C505.303,212.44,505.303,191.017,492.09,177.804z"/>
<polygon style="fill:#62CD4D;" points="224.473,480.111 224.473,274.069 294.079,204.463 500.122,204.463 "/>
<path style="fill:#D8FB93;" d="M39.91,266.326L286.336,19.9c2.351-2.351,4.965-4.275,7.743-5.79v226.124
	c0,18.686-15.148,33.835-33.835,33.835H34.121C35.635,271.291,37.559,268.677,39.91,266.326z"/>
<path d="M279.265,12.828L32.839,259.255c-8.545,8.546-12.818,19.771-12.818,30.996s4.273,22.45,12.818,30.996l39.619,39.619
	l-43.503,43.503c-1.953,1.953-2.929,4.512-2.929,7.071s0.976,5.118,2.929,7.071c3.905,3.905,10.237,3.906,14.142,0L86.6,375.008
	l18.119,18.12L2.929,494.919C0.976,496.871,0,499.431,0,501.99s0.976,5.119,2.929,7.071c3.905,3.905,10.237,3.905,14.143,0
	L118.863,407.27l71.88,71.881c17.092,17.09,44.901,17.09,61.992,0l246.426-246.427C507.44,224.446,512,213.437,512,201.729
	c0-11.709-4.56-22.717-12.839-30.996l0,0L341.257,12.828C324.166-4.263,296.356-4.263,279.265,12.828z M485.019,184.875
	L485.019,184.875c2.732,2.731,4.713,6.01,5.853,9.588H304.079V20.833c7.958-2.125,16.805-0.093,23.036,6.138L485.019,184.875z
	 M238.593,465.009c-1.271,1.271-2.659,2.352-4.119,3.276V284.069h25.771c24.17,0,43.835-19.664,43.835-43.835v-25.771h114.624
	l-57.867,57.868c-1.952,1.952-2.929,4.512-2.929,7.071c0,2.56,0.976,5.118,2.929,7.071c3.905,3.905,10.237,3.905,14.143,0
	l72.002-72.002c0.002-0.002,0.004-0.005,0.006-0.007h41.328c-0.935,1.473-2.032,2.856-3.296,4.119L238.593,465.009z M40.843,284.069
	h173.63v186.764c-3.508-1.117-6.811-3.046-9.589-5.824L46.981,307.105C40.75,300.873,38.718,292.026,40.843,284.069z
	 M284.079,36.299v203.935c0,13.143-10.692,23.835-23.835,23.835h-81.918l29.653-29.653c3.905-3.905,3.906-10.237,0-14.142
	s-10.237-3.906-14.142,0l-43.796,43.795h-29.135l90.406-90.406c3.904-3.905,3.905-10.237,0-14.143
	c-3.905-3.905-10.237-3.905-14.143,0L92.622,264.069H56.31L284.079,36.299z"/>
<path d="M235.79,135.05c1.86,1.86,2.93,4.43,2.93,7.07c0,2.63-1.07,5.21-2.93,7.07c-1.86,1.86-4.44,2.93-7.07,2.93
	c-2.64,0-5.21-1.07-7.07-2.93c-1.86-1.86-2.93-4.44-2.93-7.07c0-2.64,1.07-5.21,2.93-7.07c1.86-1.87,4.43-2.93,7.07-2.93
	C231.35,132.12,233.93,133.18,235.79,135.05z"/>
<path d="M20.04,437.42c0,2.63-1.06,5.21-2.93,7.07c-1.86,1.86-4.43,2.93-7.07,2.93c-2.63,0-5.21-1.07-7.07-2.93
	s-2.93-4.44-2.93-7.07s1.07-5.21,2.93-7.07c1.86-1.86,4.44-2.93,7.07-2.93s5.21,1.07,7.07,2.93
	C18.98,432.21,20.04,434.79,20.04,437.42z"/>
<path d="M64.53,501.984c0-2.559,0.977-5.119,2.929-7.071l45.416-45.416c3.905-3.905,10.237-3.905,14.143,0
	c3.904,3.905,3.904,10.237,0,14.143l-45.416,45.416c-3.905,3.905-10.237,3.905-14.143,0C65.506,507.103,64.53,504.543,64.53,501.984
	z"/>
<g>
</g>
<g>
</g>
<g>
</g>
<g>
</g>
<g>
</g>
<g>
</g>
<g>
</g>
<g>
</g>
<g>
</g>
<g>
</g>
<g>
</g>
<g>
</g>
<g>
</g>
<g>
</g>
<g>
</g>
</svg>
