<svg id="Capa_1" enable-background="new 0 0 512 512" height="512" viewBox="0 0 512 512" width="512" xmlns="http://www.w3.org/2000/svg"><path d="m435.744 116.846h-365.411v-74.356c0-23.467 19.023-42.49 42.489-42.49h280.672c23.561 0 42.623 19.171 42.489 42.731z" fill="#008575"/><path d="m70.333 42.49c0 23.466 19.023 42.49 42.49 42.49h319.155c23.485 0 42.516 19.053 42.49 42.538l-.483 341.993c0 23.466-19.023 42.49-42.49 42.49h-318.672c-23.466 0-42.49-19.023-42.49-42.49z" fill="#00ddc1"/><path d="m435.984 42.731c.134-23.56-18.928-42.731-42.489-42.731h-121.095v116.846h163.344z" fill="#007061"/><path d="m431.978 84.979h-159.578v427.021h159.095c23.466 0 42.49-19.023 42.49-42.49l.483-341.993c.026-23.485-19.005-42.538-42.49-42.538z" fill="#00b4bc"/><g fill="#008575"><path d="m112.533 433.5h-60c-8.284 0-15-6.716-15-15s6.716-15 15-15h60c8.284 0 15 6.716 15 15s-6.716 15-15 15z"/><path d="m112.533 373.5h-60c-8.284 0-15-6.716-15-15s6.716-15 15-15h60c8.284 0 15 6.716 15 15s-6.716 15-15 15z"/><path d="m112.533 313.5h-60c-8.284 0-15-6.716-15-15s6.716-15 15-15h60c8.284 0 15 6.716 15 15s-6.716 15-15 15z"/><path d="m112.533 253.5h-60c-8.284 0-15-6.716-15-15s6.716-15 15-15h60c8.284 0 15 6.716 15 15s-6.716 15-15 15z"/><path d="m112.533 193.5h-60c-8.284 0-15-6.716-15-15s6.716-15 15-15h60c8.284 0 15 6.716 15 15s-6.716 15-15 15z"/></g><path d="m336.873 407.289-12.223-100.227c-2.068-16.96-16.467-29.71-33.553-29.71h-37.395c-17.086 0-31.485 12.75-33.553 29.71l-12.223 100.227c-.727 5.959 3.924 11.211 9.926 11.211h109.093c6.005 0 10.655-5.252 9.928-11.211z" fill="#ecf9fb"/><circle cx="272.83" cy="212.926" fill="#ecf9fb" r="34.426"/><path d="m336.873 407.289-12.223-100.227c-2.068-16.96-16.467-29.71-33.553-29.71h-18.697v141.148h54.547c6.003 0 10.653-5.252 9.926-11.211z" fill="#cecece"/><path d="m307.257 212.926c0-19.013-15.413-34.426-34.426-34.426-.144 0-.286.009-.43.011v68.831c.144.002.286.011.43.011 19.013-.001 34.426-15.414 34.426-34.427z" fill="#cecece"/></svg>